<mxfile host="app.diagrams.net" agent="Mozilla/5.0 (Windows NT 10.0; Win64; x64) AppleWebKit/537.36 (KHTML, like Gecko) Chrome/133.0.0.0 Safari/537.36" version="26.0.16">
  <diagram name="Página-1" id="eIYt-ETIX6o0d_QR4-8d">
    <mxGraphModel dx="625" dy="337" grid="1" gridSize="10" guides="1" tooltips="1" connect="1" arrows="1" fold="1" page="1" pageScale="1" pageWidth="980" pageHeight="1390" math="0" shadow="0">
      <root>
        <mxCell id="0" />
        <mxCell id="1" parent="0" />
        <mxCell id="W63nedlpddDmwvmYeXEi-31" value="Usuario" style="swimlane;childLayout=stackLayout;horizontal=1;startSize=50;horizontalStack=0;rounded=1;fontSize=14;fontStyle=0;strokeWidth=2;resizeParent=0;resizeLast=1;shadow=0;dashed=0;align=center;arcSize=4;whiteSpace=wrap;html=1;" parent="1" vertex="1">
          <mxGeometry x="50" y="211" width="160" height="280" as="geometry" />
        </mxCell>
        <mxCell id="W63nedlpddDmwvmYeXEi-32" value="- id_user(PK)&lt;div&gt;- nome&lt;/div&gt;&lt;div&gt;- senha&lt;/div&gt;&lt;div&gt;- cpf(UN)&lt;/div&gt;&lt;div&gt;- regime_trabalhista&lt;/div&gt;&lt;div&gt;- telefone_1&lt;/div&gt;&lt;div&gt;- telefone_2&lt;/div&gt;&lt;div&gt;&lt;div&gt;- cidade&lt;/div&gt;&lt;div&gt;- bairro&lt;/div&gt;&lt;div&gt;- rua&lt;/div&gt;&lt;div&gt;- data_nascimento&lt;/div&gt;&lt;div&gt;- nivel_de_formacao&lt;/div&gt;&lt;div&gt;- status(ativo ou inativo)&lt;/div&gt;&lt;/div&gt;&lt;div&gt;- papel&lt;/div&gt;" style="align=left;strokeColor=none;fillColor=none;spacingLeft=4;fontSize=12;verticalAlign=top;resizable=0;rotatable=0;part=1;html=1;" parent="W63nedlpddDmwvmYeXEi-31" vertex="1">
          <mxGeometry y="50" width="160" height="230" as="geometry" />
        </mxCell>
        <mxCell id="W63nedlpddDmwvmYeXEi-53" value="Orgao" style="swimlane;childLayout=stackLayout;horizontal=1;startSize=50;horizontalStack=0;rounded=1;fontSize=14;fontStyle=0;strokeWidth=2;resizeParent=0;resizeLast=1;shadow=0;dashed=0;align=center;arcSize=4;whiteSpace=wrap;html=1;" parent="1" vertex="1">
          <mxGeometry x="50" y="740" width="160" height="120" as="geometry" />
        </mxCell>
        <mxCell id="W63nedlpddDmwvmYeXEi-54" value="- id_orgao&lt;div&gt;- nome&lt;/div&gt;&lt;div&gt;- endereço&lt;/div&gt;" style="align=left;strokeColor=none;fillColor=none;spacingLeft=4;fontSize=12;verticalAlign=top;resizable=0;rotatable=0;part=1;html=1;" parent="W63nedlpddDmwvmYeXEi-53" vertex="1">
          <mxGeometry y="50" width="160" height="70" as="geometry" />
        </mxCell>
        <mxCell id="W63nedlpddDmwvmYeXEi-55" value="Alocado" style="shape=rhombus;perimeter=rhombusPerimeter;whiteSpace=wrap;html=1;align=center;" parent="1" vertex="1">
          <mxGeometry x="70" y="600" width="120" height="60" as="geometry" />
        </mxCell>
        <mxCell id="W63nedlpddDmwvmYeXEi-57" value="" style="endArrow=none;html=1;rounded=0;entryX=0.5;entryY=1;entryDx=0;entryDy=0;exitX=0.5;exitY=0;exitDx=0;exitDy=0;" parent="1" source="W63nedlpddDmwvmYeXEi-55" target="W63nedlpddDmwvmYeXEi-31" edge="1">
          <mxGeometry width="50" height="50" relative="1" as="geometry">
            <mxPoint x="100" y="590" as="sourcePoint" />
            <mxPoint x="131.51999999999998" y="502.6399999999999" as="targetPoint" />
          </mxGeometry>
        </mxCell>
        <mxCell id="W63nedlpddDmwvmYeXEi-58" value="" style="endArrow=none;html=1;rounded=0;entryX=0.5;entryY=1;entryDx=0;entryDy=0;exitX=0.5;exitY=0;exitDx=0;exitDy=0;" parent="1" source="W63nedlpddDmwvmYeXEi-53" target="W63nedlpddDmwvmYeXEi-55" edge="1">
          <mxGeometry width="50" height="50" relative="1" as="geometry">
            <mxPoint x="110" y="730" as="sourcePoint" />
            <mxPoint x="160" y="680" as="targetPoint" />
          </mxGeometry>
        </mxCell>
        <mxCell id="W63nedlpddDmwvmYeXEi-59" value="(1,N)" style="text;html=1;align=center;verticalAlign=middle;resizable=0;points=[];autosize=1;strokeColor=none;fillColor=none;" parent="1" vertex="1">
          <mxGeometry x="130" y="710" width="50" height="30" as="geometry" />
        </mxCell>
        <mxCell id="W63nedlpddDmwvmYeXEi-60" value="(0,N)" style="text;html=1;align=center;verticalAlign=middle;resizable=0;points=[];autosize=1;strokeColor=none;fillColor=none;" parent="1" vertex="1">
          <mxGeometry x="130" y="500" width="50" height="30" as="geometry" />
        </mxCell>
        <mxCell id="W63nedlpddDmwvmYeXEi-62" value="data_alocacao" style="ellipse;whiteSpace=wrap;html=1;align=center;fontStyle=4;" parent="1" vertex="1">
          <mxGeometry x="230" y="585" width="90" height="40" as="geometry" />
        </mxCell>
        <mxCell id="W63nedlpddDmwvmYeXEi-66" value="" style="endArrow=none;html=1;rounded=0;exitX=1;exitY=0;exitDx=0;exitDy=0;entryX=0;entryY=0.5;entryDx=0;entryDy=0;" parent="1" source="W63nedlpddDmwvmYeXEi-55" target="W63nedlpddDmwvmYeXEi-62" edge="1">
          <mxGeometry width="50" height="50" relative="1" as="geometry">
            <mxPoint x="200" y="620" as="sourcePoint" />
            <mxPoint x="250" y="570" as="targetPoint" />
          </mxGeometry>
        </mxCell>
        <mxCell id="W63nedlpddDmwvmYeXEi-67" value="" style="endArrow=none;html=1;rounded=0;exitX=1;exitY=1;exitDx=0;exitDy=0;entryX=0;entryY=0.5;entryDx=0;entryDy=0;" parent="1" source="W63nedlpddDmwvmYeXEi-55" target="W63nedlpddDmwvmYeXEi-68" edge="1">
          <mxGeometry width="50" height="50" relative="1" as="geometry">
            <mxPoint x="190" y="660" as="sourcePoint" />
            <mxPoint x="230" y="650" as="targetPoint" />
          </mxGeometry>
        </mxCell>
        <mxCell id="W63nedlpddDmwvmYeXEi-68" value="funcao" style="ellipse;whiteSpace=wrap;html=1;align=center;fontStyle=4;" parent="1" vertex="1">
          <mxGeometry x="240" y="640" width="90" height="40" as="geometry" />
        </mxCell>
        <mxCell id="W63nedlpddDmwvmYeXEi-69" value="" style="endArrow=none;html=1;rounded=0;exitX=1;exitY=0.5;exitDx=0;exitDy=0;entryX=0;entryY=0.5;entryDx=0;entryDy=0;" parent="1" source="W63nedlpddDmwvmYeXEi-55" target="W63nedlpddDmwvmYeXEi-70" edge="1">
          <mxGeometry width="50" height="50" relative="1" as="geometry">
            <mxPoint x="210" y="635" as="sourcePoint" />
            <mxPoint x="350" y="625" as="targetPoint" />
          </mxGeometry>
        </mxCell>
        <mxCell id="W63nedlpddDmwvmYeXEi-70" value="data_fim_alocacao" style="ellipse;whiteSpace=wrap;html=1;align=center;fontStyle=4;" parent="1" vertex="1">
          <mxGeometry x="320" y="610" width="110" height="40" as="geometry" />
        </mxCell>
      </root>
    </mxGraphModel>
  </diagram>
</mxfile>
